<svg width="16" height="20" viewBox="0 0 16 20" fill="none" xmlns="http://www.w3.org/2000/svg">
<path d="M15.0849 15.4002L13.208 12.6185C12.5377 11.6251 11.0586 11.6829 10.5157 12.6994C10.1206 13.3994 9.20772 13.6536 8.49126 13.3417C6.9081 12.6023 5.08205 10.0032 5.00555 8.17576C4.90146 7.37866 5.56233 6.64398 6.35963 6.54005C7.50589 6.4176 8.11353 5.06837 7.4432 4.07493L5.56628 1.29329C5.01385 0.581707 4.01545 0.387639 3.31989 0.856634L1.43192 2.12962C-0.472218 3.48578 0.418129 8.23351 3.56867 12.9027C6.71922 17.5719 10.7731 20.2588 12.7605 18.9188L14.6484 17.6458C15.3602 17.0936 15.5542 16.0956 15.0849 15.4002Z" fill="black"/>
</svg>
