<svg width="15" height="15" viewBox="0 0 15 15" fill="none" xmlns="http://www.w3.org/2000/svg">
<path d="M11.7822 10.7429L14.93 13.89L13.89 14.93L10.7429 11.7822C9.57194 12.7209 8.11544 13.2314 6.61465 13.2293C2.96336 13.2293 0 10.2659 0 6.61465C0 2.96336 2.96336 0 6.61465 0C10.2659 0 13.2293 2.96336 13.2293 6.61465C13.2314 8.11544 12.7209 9.57194 11.7822 10.7429ZM10.3078 10.1976C11.2406 9.23838 11.7615 7.9526 11.7594 6.61465C11.7594 3.77182 9.45675 1.46992 6.61465 1.46992C3.77182 1.46992 1.46992 3.77182 1.46992 6.61465C1.46992 9.45675 3.77182 11.7594 6.61465 11.7594C7.9526 11.7615 9.23838 11.2406 10.1976 10.3078L10.3078 10.1976Z" fill="#1D1F23"/>
</svg>
