<svg width="18" height="18" viewBox="0 0 18 18" fill="none" xmlns="http://www.w3.org/2000/svg">
<path d="M9 -0.000976562C4.02996 -0.000976562 0 4.02819 0 8.99863C0 13.9691 4.02956 17.9982 9 17.9982C13.9708 17.9982 18 13.9691 18 8.99863C18 4.02819 13.9708 -0.000976562 9 -0.000976562ZM9 2.69001C10.6446 2.69001 11.9772 4.02305 11.9772 5.66682C11.9772 7.31098 10.6446 8.64362 9 8.64362C7.35623 8.64362 6.02359 7.31098 6.02359 5.66682C6.02359 4.02305 7.35623 2.69001 9 2.69001ZM8.99802 15.6452C7.35781 15.6452 5.85557 15.0479 4.69687 14.0592C4.41461 13.8184 4.25173 13.4654 4.25173 13.095C4.25173 11.4279 5.60098 10.0937 7.26847 10.0937H10.7323C12.4002 10.0937 13.7443 11.4279 13.7443 13.095C13.7443 13.4658 13.5822 13.8181 13.2996 14.0588C12.1413 15.0479 10.6386 15.6452 8.99802 15.6452Z" fill="#1D1F23"/>
</svg>
